<svg width="1024" height="1024" viewBox="0 0 1024 1024" fill="none" xmlns="http://www.w3.org/2000/svg">
<rect width="1024" height="1024" rx="100" fill="#121212"/>
<circle cx="221.449" cy="336.293" r="24.0672" transform="rotate(45 221.449 336.293)" fill="#F5F5F5"/>
<circle cx="164.722" cy="393.02" r="24.0672" transform="rotate(45 164.722 393.02)" fill="#F5F5F5"/>
<circle cx="392.706" cy="165.627" r="24.0672" transform="rotate(45 392.706 165.627)" fill="#F5F5F5"/>
<circle cx="335.979" cy="222.354" r="24.0672" transform="rotate(45 335.979 222.354)" fill="#F5F5F5"/>
<circle cx="392.958" cy="278.699" r="24.0672" transform="rotate(45 392.958 278.699)" fill="#F5F5F5"/>
<circle cx="336.231" cy="335.426" r="24.0672" transform="rotate(45 336.231 335.426)" fill="#F5F5F5"/>
<circle cx="279.504" cy="392.153" r="24.0672" transform="rotate(45 279.504 392.153)" fill="#F5F5F5"/>
<circle cx="279.432" cy="165.173" r="24.0672" transform="rotate(45 279.432 165.173)" fill="#F5F5F5"/>
<circle cx="165.978" cy="278.627" r="24.0672" transform="rotate(45 165.978 278.627)" fill="#F5F5F5"/>
<circle cx="506.096" cy="165.564" r="24.0672" transform="rotate(-45 506.096 165.564)" fill="#F5F5F5"/>
<circle cx="562.823" cy="222.291" r="24.0672" transform="rotate(-45 562.823 222.291)" fill="#F5F5F5"/>
<circle cx="619.55" cy="279.017" r="24.0672" transform="rotate(-45 619.55 279.017)" fill="#F5F5F5"/>
<circle cx="506.096" cy="165.564" r="24.0672" transform="rotate(-45 506.096 165.564)" fill="#F5F5F5"/>
<circle cx="562.823" cy="222.291" r="24.0672" transform="rotate(-45 562.823 222.291)" fill="#F5F5F5"/>
<circle cx="619.55" cy="279.017" r="24.0672" transform="rotate(-45 619.55 279.017)" fill="#F5F5F5"/>
<circle cx="506.096" cy="165.564" r="24.0672" transform="rotate(-45 506.096 165.564)" fill="#F5F5F5"/>
<circle cx="562.823" cy="222.291" r="24.0672" transform="rotate(-45 562.823 222.291)" fill="#F5F5F5"/>
<circle cx="619.55" cy="279.017" r="24.0672" transform="rotate(-45 619.55 279.017)" fill="#F5F5F5"/>
<circle cx="164.564" cy="507.096" r="24.0672" transform="rotate(-45 164.564 507.096)" fill="#F5F5F5"/>
<circle cx="221.291" cy="563.823" r="24.0672" transform="rotate(-45 221.291 563.823)" fill="#F5F5F5"/>
<circle cx="278.017" cy="620.55" r="24.0672" transform="rotate(-45 278.017 620.55)" fill="#F5F5F5"/>
<circle cx="165.036" cy="166.036" r="24.0672" transform="rotate(45 165.036 166.036)" fill="#F5F5F5"/>
<circle cx="858.036" cy="859.036" r="24.0672" transform="rotate(45 858.036 859.036)" fill="#F5F5F5"/>
<circle cx="312.036" cy="712.036" r="24.0672" transform="rotate(45 312.036 712.036)" fill="#F5F5F5"/>
<circle cx="710.036" cy="313.036" r="24.0672" transform="rotate(45 710.036 313.036)" fill="#F5F5F5"/>
<circle cx="802.137" cy="688.293" r="24.0672" transform="rotate(-135 802.137 688.293)" fill="#F5F5F5"/>
<circle cx="858.864" cy="631.566" r="24.0672" transform="rotate(-135 858.864 631.566)" fill="#F5F5F5"/>
<circle cx="630.88" cy="858.959" r="24.0672" transform="rotate(-135 630.88 858.959)" fill="#F5F5F5"/>
<circle cx="687.607" cy="802.232" r="24.0672" transform="rotate(-135 687.607 802.232)" fill="#F5F5F5"/>
<circle cx="744.155" cy="859.413" r="24.0672" transform="rotate(-135 744.155 859.413)" fill="#F5F5F5"/>
<circle cx="857.608" cy="745.959" r="24.0672" transform="rotate(-135 857.608 745.959)" fill="#F5F5F5"/>
<circle cx="517.49" cy="859.022" r="24.0672" transform="rotate(135 517.49 859.022)" fill="#F5F5F5"/>
<circle cx="460.763" cy="802.295" r="24.0672" transform="rotate(135 460.763 802.295)" fill="#F5F5F5"/>
<circle cx="404.036" cy="745.569" r="24.0672" transform="rotate(135 404.036 745.569)" fill="#F5F5F5"/>
<circle cx="859.022" cy="517.49" r="24.0672" transform="rotate(135 859.022 517.49)" fill="#F5F5F5"/>
<circle cx="802.296" cy="460.763" r="24.0672" transform="rotate(135 802.296 460.763)" fill="#F5F5F5"/>
<circle cx="745.569" cy="404.036" r="24.0672" transform="rotate(135 745.569 404.036)" fill="#F5F5F5"/>
<circle cx="517.763" cy="744.763" r="24.0672" transform="rotate(-45 517.763 744.763)" fill="#F5F5F5"/>
<circle cx="574.49" cy="801.49" r="24.0672" transform="rotate(-45 574.49 801.49)" fill="#F5F5F5"/>
<circle cx="743.763" cy="518.763" r="24.0672" transform="rotate(-45 743.763 518.763)" fill="#F5F5F5"/>
<circle cx="800.49" cy="575.49" r="24.0672" transform="rotate(-45 800.49 575.49)" fill="#F5F5F5"/>
<circle cx="687.036" cy="688.036" r="24.0672" transform="rotate(-45 687.036 688.036)" fill="#F5F5F5"/>
<circle cx="336.036" cy="451.036" r="24.0672" transform="rotate(-45 336.036 451.036)" fill="#F5F5F5"/>
<circle cx="392.763" cy="507.763" r="24.0672" transform="rotate(-45 392.763 507.763)" fill="#F5F5F5"/>
<circle cx="449.036" cy="326.036" r="24.0672" transform="rotate(-45 449.036 326.036)" fill="#F5F5F5"/>
<circle cx="505.763" cy="382.763" r="24.0672" transform="rotate(-45 505.763 382.763)" fill="#F5F5F5"/>
</svg>
